<?xml version="1.0" standalone="no"?>
<!DOCTYPE svg PUBLIC "-//W3C//DTD SVG 20010904//EN"
 "http://www.w3.org/TR/2001/REC-SVG-20010904/DTD/svg10.dtd">
<svg version="1.0" xmlns="http://www.w3.org/2000/svg"
 width="1536.000000pt" height="1536.000000pt" viewBox="0 0 1536.000000 1536.000000"
 preserveAspectRatio="xMidYMid meet">

<g transform="translate(0.000000,1536.000000) scale(0.100000,-0.100000)"
fill="#000000" stroke="none">
<path d="M8745 14600 c-56 -9 -177 -41 -270 -69 -442 -137 -558 -173 -665
-205 -63 -19 -261 -79 -440 -134 -179 -56 -386 -119 -460 -142 -74 -22 -238
-73 -365 -112 -126 -38 -315 -96 -420 -128 -247 -75 -446 -136 -1030 -315
-264 -81 -552 -169 -640 -195 -88 -26 -288 -87 -445 -135 -157 -48 -341 -104
-410 -125 -69 -21 -253 -77 -410 -125 -157 -48 -364 -111 -460 -140 -96 -30
-258 -79 -360 -110 -294 -89 -440 -168 -598 -319 -119 -114 -213 -252 -270
-397 -72 -180 -94 -323 -81 -517 10 -139 22 -191 124 -532 167 -558 1513
-5040 1712 -5700 118 -393 419 -1394 668 -2225 249 -830 463 -1534 474 -1562
127 -323 387 -570 716 -681 173 -59 375 -75 555 -44 116 20 224 51 4200 1245
888 267 1962 589 2385 717 909 273 878 263 980 310 216 100 394 259 518 463
76 127 140 321 155 473 9 90 -1 276 -19 362 -6 31 -114 399 -239 817 -125 418
-235 794 -245 835 -10 41 -25 91 -35 110 -10 19 -37 76 -60 125 -36 75 -58
104 -129 175 -60 60 -108 97 -158 123 -40 21 -77 46 -82 55 -5 11 2 109 21
267 43 365 33 478 -55 627 -65 111 -191 219 -304 261 -95 35 -116 38 -503 81
-400 45 -757 87 -772 92 -27 8 -29 31 -12 168 18 146 25 166 58 166 13 0 281
-29 597 -65 438 -50 589 -64 639 -59 197 21 370 130 474 302 59 97 74 161 107
454 17 153 37 282 44 294 9 13 33 25 72 33 78 17 205 79 275 136 111 87 211
247 239 380 21 100 17 248 -9 340 -43 150 -144 292 -266 374 -137 92 -241 125
-392 124 -126 -1 -205 -18 -296 -64 -187 -93 -309 -235 -369 -429 -34 -107
-32 -281 4 -393 51 -158 175 -315 305 -387 116 -64 115 -63 109 -144 -13 -182
-51 -465 -70 -515 -23 -62 -90 -136 -150 -164 -74 -35 -126 -36 -386 -7 -761
87 -886 102 -903 111 -12 7 -18 21 -18 45 0 19 32 310 70 647 52 450 69 628
64 672 -20 181 -127 348 -280 436 -98 55 -153 65 -799 139 -341 38 -630 75
-642 80 -17 7 -23 18 -23 39 0 67 121 1091 135 1145 21 76 61 134 127 179 88
61 121 63 433 28 242 -28 272 -33 288 -52 9 -12 17 -30 17 -40 0 -28 46 -155
72 -197 74 -124 169 -216 283 -274 108 -55 162 -70 286 -75 105 -5 125 -3 208
21 111 31 157 54 236 114 229 174 327 459 250 726 -32 111 -59 164 -129 253
-117 149 -321 253 -497 253 -64 0 -94 13 -107 47 -6 15 -32 98 -57 183 -87
292 -194 473 -375 635 -60 53 -200 153 -590 420 -47 32 -157 108 -245 169
-428 295 -613 413 -700 450 -215 90 -435 116 -660 76z m260 -710 c39 -6 97
-23 130 -39 33 -16 196 -123 362 -237 167 -115 441 -303 610 -419 334 -228
419 -300 457 -387 13 -29 60 -178 106 -331 70 -235 80 -281 69 -292 -12 -10
-56 -8 -254 16 -289 34 -330 35 -429 9 -245 -63 -426 -257 -466 -500 -9 -61
-26 -205 -100 -868 -17 -145 -35 -272 -40 -283 -13 -23 -29 -24 -185 -4 -74 9
-124 20 -133 29 -13 13 -7 87 52 608 71 621 72 651 39 768 -62 219 -254 394
-474 434 -46 8 -187 27 -314 41 -157 18 -235 31 -246 41 -9 8 -22 40 -29 72
-17 72 -80 201 -128 262 -94 118 -248 217 -382 245 -368 77 -706 -121 -822
-481 -28 -86 -30 -254 -4 -354 54 -212 213 -392 418 -474 303 -120 659 -1 834
279 24 40 44 76 44 82 0 5 9 18 21 28 20 19 27 18 290 -12 220 -26 279 -36
322 -56 95 -43 161 -132 178 -237 4 -29 -5 -148 -27 -340 -95 -843 -95 -844
-112 -862 -16 -17 -33 -16 -322 17 -168 20 -343 40 -390 45 -47 5 -184 21
-305 35 -332 38 -402 33 -545 -36 -76 -38 -192 -148 -233 -222 -56 -103 -64
-149 -137 -792 -39 -341 -75 -630 -80 -642 -8 -18 -18 -23 -49 -23 -81 0
-1098 121 -1150 137 -105 32 -189 123 -211 228 -10 46 -7 94 19 318 17 145 33
271 37 280 3 10 44 28 102 46 127 40 210 89 302 181 127 127 187 258 197 432
6 115 -4 195 -38 286 -134 366 -550 548 -909 397 -144 -60 -284 -192 -351
-331 -55 -113 -72 -202 -66 -339 5 -122 28 -204 87 -310 48 -86 178 -211 267
-258 40 -21 78 -47 83 -58 8 -15 3 -90 -20 -292 -22 -188 -30 -294 -26 -344
11 -140 88 -296 193 -394 63 -59 109 -88 203 -126 70 -29 106 -35 525 -83 248
-28 511 -58 585 -66 166 -18 180 -23 180 -66 -1 -50 -28 -266 -35 -278 -10
-17 -66 -12 -613 50 -290 34 -561 61 -602 62 -229 5 -452 -135 -555 -347 -45
-92 -51 -123 -86 -428 -16 -142 -33 -266 -39 -276 -6 -12 -34 -25 -77 -35
-249 -62 -451 -265 -509 -512 -68 -297 71 -609 339 -758 357 -199 814 -35 967
348 56 139 65 277 29 419 -49 193 -168 344 -351 446 -31 18 -62 39 -69 47 -10
12 -6 68 19 284 35 304 47 344 117 409 90 83 170 103 337 82 51 -6 296 -33
543 -61 248 -28 460 -53 472 -55 42 -10 44 -30 18 -251 -13 -115 -36 -310 -50
-434 -14 -124 -35 -306 -46 -405 -13 -113 -19 -214 -16 -270 12 -245 190 -453
437 -510 36 -8 286 -40 555 -70 690 -78 722 -82 734 -89 18 -12 14 -69 -50
-626 -45 -394 -67 -549 -82 -589 -39 -106 -146 -189 -256 -198 -55 -4 -549 48
-569 61 -6 3 -24 50 -41 104 -91 291 -323 481 -611 499 -204 12 -388 -56 -528
-195 -89 -89 -135 -162 -174 -276 -108 -316 46 -683 349 -831 99 -48 188 -68
313 -68 92 0 116 3 195 30 189 65 318 174 406 341 18 35 40 67 49 72 11 6 114
-2 276 -21 302 -36 400 -35 506 4 180 65 312 194 381 367 25 63 38 156 103
739 43 377 63 519 74 533 15 18 19 18 155 2 77 -9 146 -21 153 -26 21 -18 23
5 -74 -828 -19 -168 -35 -345 -36 -395 -1 -240 154 -466 387 -562 65 -27 120
-37 405 -68 146 -17 243 -32 257 -41 13 -8 25 -27 29 -42 18 -82 29 -113 64
-182 139 -272 447 -425 740 -366 313 64 540 321 557 631 7 136 -13 232 -74
355 -80 161 -214 277 -396 343 -74 27 -94 30 -202 31 -140 0 -210 -16 -327
-77 -126 -64 -245 -188 -318 -332 -13 -24 -23 -31 -53 -33 -34 -3 -446 41
-512 54 -85 18 -177 90 -215 169 -35 73 -35 145 4 485 20 173 48 419 63 545
14 127 29 240 34 253 7 17 16 22 42 22 18 0 310 -32 648 -70 437 -50 631 -69
674 -64 239 24 439 195 495 424 11 48 50 350 89 688 53 466 72 607 84 619 18
18 -23 22 699 -61 427 -49 483 -58 532 -81 98 -46 164 -143 173 -254 2 -31 -9
-168 -25 -305 -27 -228 -32 -252 -52 -268 -12 -10 -30 -18 -41 -18 -36 0 -166
-54 -229 -95 -362 -236 -426 -725 -138 -1040 93 -101 190 -160 338 -205 66
-20 90 -22 203 -17 111 4 129 3 136 -12 5 -9 77 -243 161 -521 162 -539 174
-596 150 -701 -32 -137 -138 -264 -261 -310 -27 -11 -276 -87 -552 -170 -650
-195 -1457 -437 -2662 -799 -3403 -1023 -4136 -1241 -4182 -1247 -65 -7 -159
11 -233 45 -67 31 -168 129 -197 193 -12 25 -60 173 -107 330 -46 156 -118
397 -159 534 -42 138 -294 979 -562 1870 -268 891 -518 1724 -555 1850 -38
127 -121 403 -185 615 -408 1353 -1351 4497 -1366 4555 -53 201 22 399 191
502 51 31 73 38 650 213 665 202 793 241 1345 410 105 32 318 97 475 145 157
47 326 99 375 115 50 16 241 74 425 130 184 56 382 117 440 135 58 18 233 72
390 120 157 48 371 113 475 145 105 32 300 92 435 133 135 41 432 132 660 202
228 70 489 149 578 177 180 54 299 87 322 87 8 0 47 -4 85 -9z m-1352 -1165
c111 -53 198 -172 212 -289 8 -62 -9 -166 -37 -219 -32 -63 -102 -131 -171
-166 -197 -100 -438 -4 -517 206 -30 79 -24 205 13 285 44 98 126 170 230 204
70 23 200 13 270 -21z m3949 -449 c63 -31 145 -111 176 -172 48 -95 47 -239
-3 -340 -54 -111 -178 -191 -309 -201 -153 -12 -288 66 -363 209 -26 49 -28
62 -28 163 1 124 14 166 80 243 82 96 172 134 305 128 68 -2 97 -8 142 -30z
m-6101 -1258 c241 -111 294 -425 102 -609 -57 -55 -107 -82 -185 -99 -71 -16
-177 -1 -246 34 -63 33 -137 108 -170 176 -24 49 -27 66 -27 155 0 87 3 107
26 156 45 96 124 167 227 206 61 22 205 13 273 -19z m2274 -608 c143 -16 341
-39 440 -50 99 -11 358 -41 575 -65 217 -25 514 -58 660 -75 146 -17 542 -62
880 -100 338 -39 639 -76 669 -82 79 -17 139 -62 173 -127 24 -45 28 -65 27
-130 0 -42 -4 -101 -9 -131 -5 -30 -14 -107 -20 -170 -6 -63 -15 -135 -20
-160 -6 -25 -26 -184 -45 -355 -20 -170 -76 -665 -126 -1100 -49 -434 -110
-967 -134 -1183 -25 -217 -50 -413 -56 -437 -24 -95 -123 -165 -235 -165 -34
0 -237 20 -451 45 -213 24 -449 51 -523 59 -74 9 -232 27 -350 40 -118 14
-654 75 -1190 136 -538 61 -995 118 -1020 126 -99 34 -152 90 -172 185 -10 48
-3 127 61 689 40 349 88 770 107 935 19 165 43 379 54 475 29 249 73 638 120
1055 22 198 47 388 57 422 30 116 119 188 238 192 17 1 147 -12 290 -29z
m5479 -265 c89 -23 188 -102 230 -184 68 -131 45 -311 -54 -425 -114 -129
-322 -161 -470 -71 -73 44 -115 92 -152 172 -25 53 -30 76 -30 145 -1 95 15
147 67 224 88 127 246 181 409 139z m-8197 -3078 c100 -51 166 -131 197 -236
21 -73 20 -130 -4 -210 -35 -114 -121 -206 -232 -246 -75 -27 -218 -17 -292
19 -64 32 -143 113 -176 183 -34 73 -39 199 -10 276 40 105 131 197 229 231
73 26 221 17 288 -17z m7809 -894 c228 -107 279 -417 98 -597 -25 -26 -70 -59
-98 -74 -47 -25 -60 -27 -166 -27 -112 0 -117 1 -178 34 -75 41 -124 94 -162
176 -56 120 -45 254 31 368 99 149 303 201 475 120z m-6160 -1234 c109 -34
180 -91 227 -184 58 -113 58 -230 0 -346 -116 -232 -428 -274 -604 -81 -78 86
-93 126 -94 252 0 96 2 110 29 164 65 132 185 205 352 215 12 0 53 -9 90 -20z
m3982 -461 c78 -29 149 -91 191 -168 35 -64 36 -67 36 -180 0 -106 -2 -119
-28 -169 -76 -144 -242 -230 -392 -202 -127 24 -227 98 -282 209 -25 51 -28
67 -28 162 0 92 3 112 26 160 84 178 288 259 477 188z"/>
<path d="M3952 11747 l-63 -21 6 -36 c4 -19 18 -69 31 -110 13 -41 24 -82 24
-90 0 -17 -24 -27 -145 -60 -44 -12 -84 -26 -88 -30 -8 -7 25 -145 37 -158 5
-4 190 45 237 63 11 4 23 -21 47 -102 18 -60 32 -113 32 -120 0 -6 4 -14 9
-18 15 -9 161 37 161 51 0 6 -14 56 -30 110 -17 54 -29 107 -28 118 2 15 27
26 117 52 62 18 116 35 118 38 5 4 -18 92 -37 140 l-9 23 -111 -33 c-128 -39
-137 -40 -144 -16 -50 172 -69 222 -84 221 -9 0 -45 -10 -80 -22z"/>
<path d="M3135 11725 c-10 -3 -243 -72 -277 -81 -21 -6 -23 -25 -48 -449 -11
-187 -23 -380 -27 -429 l-6 -89 34 7 c19 3 82 21 142 38 l107 32 0 62 c0 37 5
65 13 71 6 6 68 27 137 47 69 20 133 39 142 42 12 4 27 -10 54 -50 20 -31 40
-56 43 -56 11 0 275 80 279 85 7 6 -12 34 -217 309 -103 138 -222 299 -265
359 -74 100 -85 111 -111 102z m59 -473 c32 -51 57 -94 55 -95 -2 -2 -42 -15
-89 -29 -61 -19 -87 -23 -92 -14 -9 14 -10 148 -2 250 l7 76 31 -47 c17 -27
58 -90 90 -141z"/>
<path d="M7985 3526 c-46 -13 -511 -153 -1155 -347 -679 -206 -805 -244 -1105
-334 -401 -120 -433 -131 -469 -164 -106 -98 -77 -270 56 -326 21 -8 51 -15
67 -15 16 0 128 30 248 66 390 117 1038 313 1488 449 242 73 564 170 715 215
151 46 292 91 312 101 20 11 49 35 65 56 25 33 28 44 28 114 0 71 -2 80 -31
116 -58 71 -129 94 -219 69z"/>
<path d="M8930 3125 c-30 -9 -343 -103 -695 -209 -352 -107 -874 -265 -1160
-351 -286 -86 -576 -174 -645 -195 -69 -21 -269 -82 -445 -135 -471 -140 -481
-145 -530 -230 -55 -92 -23 -200 72 -246 88 -43 121 -37 583 103 228 70 604
183 835 253 231 70 494 149 585 176 252 77 1132 343 1340 406 222 67 259 83
305 134 43 48 55 77 55 132 0 128 -143 205 -300 162z"/>
<path d="M8088 8853 c-99 -203 -206 -422 -238 -488 -32 -66 -146 -299 -254
-519 -108 -219 -196 -402 -196 -407 0 -4 19 -10 43 -13 95 -12 523 -56 543
-56 17 0 29 21 69 121 27 66 52 122 56 125 11 6 646 -59 653 -68 2 -2 13 -57
25 -123 12 -67 26 -126 30 -133 5 -8 106 -23 297 -42 159 -16 298 -30 310 -30
20 0 7 55 -220 962 l-241 962 -44 8 c-36 6 -624 68 -646 68 -3 0 -88 -165
-187 -367z m496 -325 c29 -153 67 -360 86 -471 7 -37 11 -69 9 -71 -5 -5 -369
32 -386 38 -11 5 21 90 134 361 17 39 50 118 74 177 24 59 47 108 50 108 4 0
19 -64 33 -142z"/>
<path d="M9895 9038 c-2 -7 -15 -125 -29 -263 -14 -137 -39 -380 -56 -540 -16
-159 -43 -418 -60 -575 -16 -157 -34 -325 -40 -374 -6 -49 -9 -90 -8 -91 2 -2
71 -10 153 -19 83 -9 215 -23 294 -31 79 -9 145 -14 147 -13 3 4 24 194 74
688 16 162 32 311 35 330 3 19 16 145 30 280 13 135 32 314 41 398 9 84 14
156 10 159 -6 7 -506 62 -564 63 -12 0 -25 -6 -27 -12z"/>
</g>
</svg>
